<svg width="24" height="31" viewBox="0 0 24 31" fill="none" xmlns="http://www.w3.org/2000/svg">
<path d="M0.00112569 0.00329115C5.34292 0.00182966 10.687 -0.00474865 16.0287 0.00621252C18.395 0.172092 20.8167 1.27405 22.0887 3.28798C23.2962 5.2018 23.3878 7.58256 22.9945 9.74045C22.6178 11.864 21.291 13.9722 19.1417 14.7482C21.3443 15.3957 23.0898 17.2262 23.6677 19.3841C24.175 21.2775 24.0925 23.3199 23.4816 25.1811C22.8234 27.1855 21.2662 28.8509 19.3413 29.7826C17.9192 30.4797 16.3499 30.9145 14.7567 30.9978C9.83817 31.0007 4.92041 31.0007 0.00112569 30.9978C-0.000375231 20.6665 -0.000375231 10.3346 0.00112569 0.00329115ZM8.71849 5.51309C8.723 7.60083 8.73575 9.68931 8.73725 11.777C10.2202 11.7982 11.7031 11.8253 13.1867 11.8428C14.2051 11.8552 15.2663 11.3247 15.6663 10.3784C16.0783 9.39701 16.0678 8.24755 15.6723 7.26324C15.2565 6.24458 14.1511 5.63585 13.0569 5.60443C11.6123 5.5657 10.1654 5.54159 8.71849 5.51309ZM8.49485 17.767C8.49335 19.881 8.49335 21.9951 8.49485 24.1091C9.959 24.1062 11.4232 24.1091 12.8858 24.082C14.1211 23.9052 15.3548 23.1262 15.7383 21.9227C16.0738 20.8485 15.9049 19.5485 15.0531 18.7396C14.2697 18.0052 13.1462 17.7195 12.0836 17.7012C10.8881 17.7195 9.69184 17.7392 8.49485 17.767Z" fill="white"/>
</svg>
