<svg width="25" height="31" viewBox="0 0 25 31" fill="none" xmlns="http://www.w3.org/2000/svg">
<path d="M14.1437 0.205763C17.6092 -0.19324 21.1239 0.0321274 24.5675 0.504836C24.3087 2.73372 24.0514 4.96191 23.7851 7.18938C22.131 6.85912 20.4406 6.67981 18.7487 6.67839C16.6043 6.66422 14.5099 7.36939 12.7038 8.42041C10.8462 9.51961 9.33207 11.2247 8.84099 13.2602C8.24625 15.7307 8.77365 18.4876 10.4822 20.484C12.0984 22.3579 14.4827 23.5811 16.9759 24.0822C19.6 24.467 22.2763 24.265 24.9034 23.9985C24.9344 26.1672 25.088 28.3408 24.9291 30.5059C21.6793 30.9708 18.3666 31.1565 15.0903 30.8489C13.0791 30.6186 11.03 30.2146 9.27911 29.221C6.80255 28.0523 4.59688 26.3628 2.92919 24.2863C1.1586 22.0829 0.11894 19.3735 0.0152769 16.6152C-0.0891425 13.7237 0.326264 10.7414 1.74047 8.13621C2.66284 6.41547 4.05812 4.94419 5.68343 3.77695C6.8661 2.91941 8.17135 2.2277 9.45844 1.52112C10.8863 0.745081 12.5244 0.407745 14.1437 0.205763Z" fill="white"/>
</svg>
