<svg width="30" height="32" viewBox="0 0 30 32" fill="none" xmlns="http://www.w3.org/2000/svg">
<path d="M13.2583 0.107943C16.3285 -0.278876 19.5116 0.38293 22.1774 1.94873C25.5499 3.90348 28.0649 7.19892 29.221 10.899C30.5014 14.9517 30.1999 19.4895 28.3429 23.3185C26.7538 26.6332 23.9887 29.4029 20.5898 30.8519C17.5889 32.1491 14.1321 32.3571 10.9997 31.4246C7.78159 30.4864 4.95718 28.3742 3.03445 25.6501C0.77233 22.4786 -0.263705 18.4929 0.0571073 14.6226C0.356484 10.7066 2.08059 6.89617 4.91645 4.15638C7.16499 1.96298 10.1273 0.484789 13.2583 0.107943ZM13.4097 8.16348C11.7921 8.53107 10.3252 9.46712 9.27135 10.7387C7.91951 12.3494 7.25214 14.4929 7.39004 16.5852C7.5208 18.9225 8.68688 21.1985 10.571 22.6111C12.1487 23.8243 14.2329 24.3614 16.2042 24.038C18.2619 23.7239 20.1296 22.4793 21.29 20.7647C22.5118 18.9937 22.9776 16.7419 22.614 14.6283C22.236 12.3295 20.8363 10.2002 18.8157 9.01334C17.2116 8.05163 15.2332 7.74389 13.4097 8.16348V8.16348Z" fill="white"/>
</svg>
