<svg width="35" height="31" viewBox="0 0 35 31" fill="none" xmlns="http://www.w3.org/2000/svg">
<path d="M0 0.00391235C1.14268 -0.000456473 2.28611 -0.00263057 3.42878 0.00537894C8.13511 5.54432 12.8422 11.0833 17.5515 16.6207C22.2676 11.2252 26.9694 5.81956 31.6885 0.426978C32.7922 0.42989 33.8952 0.426976 34.9989 0.429889C35.0004 10.6194 35.0004 20.809 34.9989 30.9978C32.0182 31.0007 29.0382 31.0007 26.0598 30.9978C26.0583 27.4933 26.0598 23.988 26.0583 20.4842C23.2192 23.4478 20.3913 26.42 17.5538 29.3857C14.7919 26.3516 12.0382 23.3087 9.27629 20.2753C9.27479 23.8126 9.27779 27.3491 9.27479 30.8879C6.18395 30.8886 3.09234 30.8922 0.00149777 30.8857C-8.23273e-07 20.5913 0 10.2983 0 0.00391235Z" fill="white"/>
</svg>
