<svg width="27" height="31" viewBox="0 0 27 31" fill="none" xmlns="http://www.w3.org/2000/svg">
<path d="M0.000753197 0.00293116C1.06576 -0.001468 2.13003 0.00293277 3.19504 0C8.34284 4.49448 13.4787 9.00287 18.625 13.4988C18.628 9.03366 18.6235 4.56998 18.6265 0.105567C21.4177 0.109966 24.2111 0.0857692 27 0.11803C26.9925 10.3732 26.9985 20.6299 26.997 30.8843C26.0786 30.8909 25.1616 30.8858 24.2425 30.8872C18.8785 26.2146 13.525 21.5295 8.15885 16.8561C8.15885 21.5691 8.15662 26.2835 8.16036 30.9965C5.4395 31.0024 2.72087 30.9994 0 30.9979C0.000747902 20.6673 0.000753197 10.3351 0.000753197 0.00293116Z" fill="white"/>
</svg>
