<svg width="16" height="16" viewBox="0 0 16 16" fill="none" xmlns="http://www.w3.org/2000/svg">
<path d="M6.91626 0.0674781C8.62879 -0.147663 10.4136 0.147595 11.9183 1.01152C14.0073 2.16958 15.5221 4.30754 15.8997 6.66849C16.0963 7.99911 16.0151 9.38633 15.5568 10.6564C14.9159 12.4891 13.5804 14.064 11.8802 14.9996C10.3279 15.868 8.48034 16.1829 6.72579 15.8977C4.9113 15.612 3.21221 14.6707 2.00105 13.2897C0.763567 11.898 0.0403409 10.0598 0.00336762 8.19801C-0.0487312 6.43991 0.505309 4.67284 1.55121 3.25929C2.81222 1.53088 4.79029 0.339206 6.91626 0.0674781ZM7.61316 1.0866C6.89162 1.24627 6.37792 1.86479 6.08997 2.51246C5.87598 3.00605 5.46927 3.41504 4.96676 3.60889C4.23234 3.90751 3.42341 3.60553 2.6733 3.80442C2.01506 3.99491 1.53777 4.69189 1.64364 5.37598C1.79602 6.29761 2.53716 7.02258 2.56517 7.97839C2.62175 8.51456 2.27443 8.95549 2.05427 9.41042C1.78594 9.94267 1.57587 10.5623 1.74841 11.1584C2.00722 11.8274 2.75284 12.2313 3.45645 12.1624C4.19312 12.126 5.01773 12.112 5.6121 12.6252C6.15046 13.1687 6.39023 13.9407 6.951 14.4674C7.49047 14.966 8.38903 15.0142 8.97332 14.5649C9.70102 14.008 9.87414 12.9709 10.6607 12.4739C11.4085 12.0554 12.2959 12.3036 13.102 12.168C13.7664 12.0812 14.3261 11.4677 14.3059 10.7898C14.3025 10.0166 13.7591 9.4121 13.5054 8.71625C13.2566 8.19409 13.3155 7.56659 13.59 7.0674C13.8897 6.46176 14.3104 5.84604 14.2443 5.13955C14.1703 4.39552 13.4768 3.80556 12.7401 3.79155C11.9799 3.71984 11.1116 3.93497 10.4629 3.42345C9.7621 2.95675 9.58507 2.05977 8.96773 1.51856C8.61312 1.17848 8.10221 0.98687 7.61316 1.0866Z" fill="white"/>
</svg>
