<svg width="829" height="155" viewBox="0 0 829 155" fill="none" xmlns="http://www.w3.org/2000/svg">
<path d="M111.21 10.2314L111.357 9.10259H110.218H86.0468H84.88L85.0586 10.2556C85.7325 14.6073 86.2407 19.9814 86.7506 27.2405C86.9071 30.6602 87.0635 34.3661 87.22 38.3585H31.9163C26.1663 38.3585 18.0417 37.8533 13.1575 37.184L12.0217 37.0284V38.1747V60.6663V61.7247L13.0784 61.6647C19.0322 61.3267 26.3286 60.9899 32.427 60.9899H76.9418C63.0487 79.8178 35.7362 102.691 3.57559 117.765L2.36148 118.334L3.25316 119.336L18.9136 136.923L19.4346 137.508L20.1274 137.142C46.1326 123.407 72.7641 101.027 88.1629 81.9172C88.4512 98.3247 88.4512 114.036 88.4512 124.759C88.4512 127.135 88.0307 128.622 87.2963 129.513C86.6003 130.358 85.457 130.861 83.4935 130.861C77.7607 130.861 68.6271 130.189 61.0279 128.847L59.7473 128.621L59.8576 129.917L61.7301 151.901L61.8027 152.754L62.6569 152.814C72.383 153.492 81.9386 153.831 92.345 153.831C98.9591 153.831 104.05 152.232 107.47 149.085C110.906 145.923 112.498 141.345 112.41 135.735C112.169 119.623 111.76 100.814 111.36 82.4635C111.201 75.1669 111.043 67.943 110.899 60.9899H131.836C134.907 60.9899 138.807 61.1413 142.697 61.2925C144.606 61.3666 146.512 61.4407 148.317 61.4967L149.348 61.5287V60.4972V38.0056V36.8264L148.185 37.0191C144.157 37.6859 136.212 38.3585 130.645 38.3585H110.364C110.354 36.5061 110.318 34.7169 110.282 32.9959L110.277 32.7462C110.236 30.805 110.197 28.9544 110.197 27.1826C110.197 21.9733 110.536 15.4222 111.21 10.2314ZM179.751 66.265L178.669 66.1753V67.2616V93.8117V94.8955L179.749 94.8085C186.009 94.3042 197.384 93.9662 207.074 93.9662H298.483C303.532 93.9662 309.321 94.304 313.742 94.562C315.561 94.6682 317.149 94.7608 318.358 94.8109L319.399 94.854V93.8117V67.2616V66.1822L318.323 66.2645C317.797 66.3047 317.229 66.3495 316.623 66.3974C312.111 66.7537 305.495 67.2762 298.483 67.2762H207.074C198.246 67.2762 185.848 66.7697 179.751 66.265ZM384.988 152.851L384.815 154H385.977H412.532H413.635L413.527 152.902C412.847 145.973 412 134.177 412 129.325V82.8653C430.252 89.1299 454.937 98.6702 471.988 107.551L472.955 108.055L473.373 107.048L483.076 83.7108L483.438 82.8398L482.589 82.4275C467.027 74.8652 434.807 63.0116 412 56.364V32.0868C412 25.2201 412.843 17.836 413.525 11.908L413.653 10.7937H412.532H385.977H384.756L384.997 11.9911C386.17 17.8187 386.679 26.2007 386.679 32.0868V129.325C386.679 136.045 386.001 146.142 384.988 152.851ZM638.051 10.0475L637.593 9.37415L636.841 9.6863L623.393 15.2669L622.232 15.7491L622.963 16.7723C627.151 22.6278 631.785 31.6377 635.297 38.4683C635.595 39.0473 635.885 39.6106 636.165 40.155L636.594 40.987L637.453 40.6138L651.07 34.695L652.051 34.2687L651.56 33.3187C648.319 27.048 642.34 16.3533 638.051 10.0475ZM658.134 2.4328L657.675 1.76608L656.927 2.07637L643.48 7.65698L642.302 8.14547L643.057 9.17259C647.604 15.3636 653.192 25.2834 656.583 32.1893L656.999 33.0373L657.87 32.6698L671.487 26.9201L672.484 26.4995L671.986 25.5392C668.905 19.5859 662.585 8.89586 658.134 2.4328ZM536.207 92.5912L536.202 92.6037C530.448 107.4 520.451 125.58 509.788 139.367L508.991 140.398L510.193 140.901L534.024 150.878L534.762 151.187L535.225 150.536C544.303 137.773 554.385 118.416 560.54 101.941C566.521 86.1511 572.661 62.7627 575.052 50.8862L575.054 50.8775L575.056 50.8689C575.732 47.1746 577.596 38.9301 579.112 34.0761L579.442 33.0195L578.357 32.7981L553.505 27.7248L552.415 27.5023L552.31 28.6099C550.278 49.9752 543.837 73.7251 536.207 92.5912ZM620.284 89.7572L620.286 89.7642C627.077 107.979 633.194 129.245 637.953 149.341L638.203 150.394L639.233 150.062L664.426 141.945L665.346 141.649L665.081 140.719C660.307 123.95 651.275 96.8624 645.305 81.6096L645.304 81.6072C638.826 65.1786 627.064 39.0985 620.062 26.0338L619.668 25.2992L618.875 25.5541L596.236 32.8258L595.075 33.1986L595.667 34.264C602.784 47.0579 613.828 72.035 620.284 89.7572ZM684.979 78.8067L683.774 79.1143L684.334 80.2252L695.057 101.533L695.431 102.276L696.23 102.044C716.661 96.103 737.725 87.2783 755.039 78.3752V130.847C755.039 138.282 754.527 148.864 753.861 152.835L753.666 154H754.847H781.742H783.063L782.705 152.729C782.143 150.734 781.762 147.158 781.528 143.071C781.295 139.016 781.21 134.555 781.21 130.847V63.0661C797.621 52.2645 813.833 39.1581 826.7 26.5438L827.441 25.8175L826.688 25.1039L808.304 7.68559L807.528 6.9503L806.846 7.77365C795.857 21.0427 776.538 37.8818 759.092 48.6517C740.288 60.0959 715.359 71.0507 684.979 78.8067Z" stroke="url(#paint0_linear_4_44)" stroke-width="2"/>
<defs>
<linearGradient id="paint0_linear_4_44" x1="826" y1="153" x2="566.497" y2="-311.352" gradientUnits="userSpaceOnUse">
<stop stop-color="#9A6A44"/>
<stop offset="0.28125" stop-color="#FFF4BC"/>
<stop offset="0.53125" stop-color="#AB6516"/>
<stop offset="0.760417" stop-color="#9C3E09"/>
<stop offset="1" stop-color="#E7D4A6"/>
</linearGradient>
</defs>
</svg>
